<svg width="26" height="26" viewBox="0 0 26 26" fill="none" xmlns="http://www.w3.org/2000/svg">
<g id="Group 14366">
<path id="Vector" d="M17.5612 8.54442C17.4102 8.18349 17.256 7.84953 17.0269 7.69053C16.7692 7.50936 16.3226 7.49978 15.9283 7.49019C13.8709 7.45843 11.804 7.45364 9.74026 7.46482C9.77042 8.08643 9.74026 8.70978 9.7037 9.32181L9.49219 14.0216C10.0343 14.0646 10.5702 14.0852 11.0885 14.0598C11.3795 14.0376 11.653 14.2411 11.7325 14.5304C11.8867 15.109 12.0521 15.6847 12.2175 16.2601C12.4066 16.9215 12.5944 17.583 12.7708 18.2475C12.8201 18.4241 12.89 18.6768 12.9871 18.7499C13.0793 18.8198 13.3592 18.8088 13.5657 18.804C14.1492 18.7755 14.2193 18.6498 14.2193 18.6482C14.2462 18.5831 14.2033 18.3684 14.1827 18.2651L13.7599 16.2078C13.5498 15.1743 13.8392 14.4159 14.5355 14.179C14.7899 14.0948 15.0316 14.1043 15.2541 14.1313L18.0237 14.4175C18.4006 14.4573 18.7536 14.4954 19.0428 14.4143C19.2638 14.3554 19.4451 14.2108 19.4737 14.0726C19.4959 13.9533 19.4307 13.7402 19.3798 13.567C18.876 11.8896 18.2624 10.1994 17.5611 8.54421L17.5612 8.54442Z" fill="#EB752C"/>
<path id="Vector_2" d="M12.7194 0C5.69513 0 0 5.69513 0 12.7194C0 19.7438 5.69513 25.4389 12.7194 25.4389C19.7438 25.4389 25.4389 19.7438 25.4389 12.7194C25.4389 5.69513 19.7438 0 12.7194 0ZM20.7232 14.3207C20.5927 14.9455 20.0666 15.4607 19.3797 15.6404C18.8614 15.7866 18.3463 15.7311 17.8899 15.6802L15.1155 15.3939C14.9978 15.3828 14.9533 15.3844 14.9357 15.386C14.9691 15.3908 14.9341 15.6023 15.0056 15.9536L15.4285 18.0109C15.4874 18.2988 15.5731 18.728 15.3887 19.1509C15.0294 20.0048 13.9674 20.0571 13.6192 20.0747C13.5366 20.0779 13.4475 20.0811 13.3554 20.0811C12.9944 20.0811 12.5764 20.0365 12.217 19.7631C11.7798 19.4307 11.6368 18.9188 11.5445 18.5802C11.3695 17.9157 11.1836 17.2637 10.996 16.612C10.8734 16.1889 10.7526 15.7675 10.6365 15.3446C10.247 15.3478 9.83994 15.3113 9.43624 15.2811L9.43464 15.3033C9.41867 15.6467 9.158 15.9329 8.78749 15.9107C8.22302 15.9011 7.6889 15.9536 7.13242 16.0108C6.6077 16.0649 6.06721 16.1188 5.48216 16.1188C5.42804 16.1188 5.3741 16.1188 5.31998 16.1173C5.14661 16.1141 4.97981 16.0394 4.86217 15.9105C4.74434 15.7835 4.68543 15.6133 4.69661 15.4385C4.89695 12.5479 5.12266 9.27275 4.69342 6.23734C4.66804 6.06238 4.7172 5.8844 4.82863 5.7476C4.93989 5.61079 5.10368 5.52667 5.28024 5.5139L7.20732 5.38827C7.7638 5.35171 8.45229 5.30717 9.10884 5.53928C9.29959 5.60759 9.44599 5.7602 9.50313 5.95432C9.5269 6.03222 9.53489 6.11332 9.55405 6.19122C11.6845 6.17844 13.8183 6.18642 15.9501 6.21819C16.4716 6.22937 17.1823 6.24516 17.7548 6.64743C18.2603 7.00037 18.5132 7.53307 18.7293 8.0498C19.448 9.74462 20.0776 11.4793 20.5943 13.2012C20.6864 13.4892 20.8072 13.8851 20.723 14.3207L20.7232 14.3207Z" fill="#EB752C"/>
<path id="Vector_3" d="M7.29359 6.65714L6.03905 6.73805C6.34266 9.4537 6.18846 12.2696 6.01367 14.8322C6.34284 14.813 6.66881 14.7812 7.0042 14.7463C7.38731 14.7065 7.77999 14.6668 8.19188 14.6492L8.43675 9.24527C8.48928 8.36763 8.54163 7.46618 8.37642 6.66163C8.03448 6.60786 7.66077 6.63324 7.29363 6.6572L7.29359 6.65714Z" fill="#EB752C"/>
</g>
</svg>
