<svg width="27" height="27" viewBox="0 0 27 27" fill="none" xmlns="http://www.w3.org/2000/svg">
<g id="Group 14356">
<path id="Vector" d="M21.6765 11.1363H15.2585C15.046 11.1363 14.8759 11.0088 14.7484 10.8388C14.6634 10.6262 14.6634 10.4137 14.7484 10.2437C15.0035 9.86114 15.216 9.39359 15.4285 8.88352C15.8961 7.60837 15.7686 6.41822 15.5985 5.61063C15.471 5.14307 15.1735 4.76052 14.8334 4.71802H14.7909C14.7909 4.71802 14.6209 4.71802 14.4084 4.80303C14.2384 4.97305 13.7708 6.16319 13.5158 6.88578C13.3033 7.43835 13.0907 7.94841 12.9207 8.33096C12.4106 9.39359 11.4755 10.2862 10.2004 11.0088C10.1579 11.0513 10.0729 11.0513 10.0304 11.0513C9.47779 11.0938 9.18025 11.1363 9.05273 11.1788V19.8071H18.9989C19.509 19.8071 19.9766 19.4671 19.9766 19.0845C19.9766 18.8295 19.8916 18.6595 19.8065 18.5745C19.6365 18.3619 19.339 18.2769 19.0415 18.2769C18.7864 18.2769 18.6164 18.1069 18.6164 17.8519C18.6164 17.5968 18.7864 17.4268 19.0415 17.4268H19.8491C20.3591 17.4268 20.8267 17.0868 20.8267 16.7042C20.8267 16.4492 20.7417 16.2792 20.6566 16.1942C20.4866 15.9816 20.1891 15.8966 19.8916 15.8966C19.6365 15.8966 19.4665 15.7266 19.4665 15.4716C19.4665 15.2166 19.6365 15.0465 19.8916 15.0465H20.8267C21.3367 15.0465 21.8043 14.7065 21.8043 14.3239C21.8043 14.0689 21.7193 13.8989 21.6343 13.8139C21.4642 13.6014 21.1667 13.5163 20.8692 13.5163C20.6141 13.5163 20.4441 13.3463 20.4441 13.0913C20.4441 12.8363 20.6141 12.6662 20.8692 12.6662H21.7193C22.0168 12.6662 22.3144 12.5387 22.4844 12.3262C22.5694 12.2412 22.6969 12.0712 22.6544 11.8161C22.6119 11.4336 22.1868 11.1361 21.6768 11.1361L21.6765 11.1363Z" fill="#54B5A9"/>
<path id="Vector_2" d="M13.3889 0C5.99299 0 0 5.99347 0 13.3889C0 20.7843 5.99347 26.7778 13.3889 26.7778C20.7843 26.7778 26.7778 20.7843 26.7778 13.3889C26.7778 5.99347 20.7843 0 13.3889 0ZM22.3572 13.3889C22.5698 13.6864 22.6548 14.0265 22.6548 14.3665C22.6123 15.0466 22.1022 15.5992 21.3796 15.8117C21.5921 16.1092 21.6772 16.4068 21.6347 16.7468C21.5921 17.3844 21.1246 17.8944 20.487 18.1495C20.6995 18.447 20.7845 18.787 20.7845 19.1271C20.742 19.9772 19.9344 20.6573 18.9568 20.6573H8.88285H8.79784C8.58532 20.9548 8.24528 21.1673 7.82023 21.1673H6.20503C5.52495 21.1673 4.97238 20.5723 4.97238 19.8497V11.0513C4.97238 10.3288 5.52495 9.73369 6.20503 9.73369H7.82023C8.28778 9.73369 8.67033 9.98872 8.88285 10.3713C9.13788 10.3288 9.47793 10.2863 9.90298 10.2437C11.0081 9.60617 11.7732 8.84108 12.1983 7.99097C12.3683 7.65093 12.5383 7.14087 12.7508 6.63081C13.3884 4.97311 13.6859 4.29302 14.0685 4.0805C14.4935 3.86797 14.8761 3.91048 14.9186 3.91048H15.0036C15.6837 3.99549 16.2362 4.59056 16.4913 5.39816C16.7038 6.29077 16.8738 7.69344 16.2788 9.18112C16.1512 9.56367 15.9812 9.90371 15.8112 10.2437H21.7192C22.6968 10.2437 23.5044 10.9238 23.5469 11.7739C23.5894 12.199 23.4194 12.5815 23.1644 12.8791C22.9093 13.1341 22.6543 13.3041 22.3568 13.3891L22.3572 13.3889Z" fill="#54B5A9"/>
<path id="Vector_3" d="M7.82099 10.6262H6.20579C5.99326 10.6262 5.82324 10.8387 5.82324 11.0938V19.8921C5.82324 20.1471 5.99326 20.3597 6.20579 20.3597H7.82099C8.03351 20.3597 8.20353 20.1471 8.20353 19.8921V11.051C8.20353 10.796 8.03351 10.626 7.82099 10.626V10.6262Z" fill="#54B5A9"/>
</g>
</svg>
